<mxfile host="app.diagrams.net" agent="Mozilla/5.0 (Windows NT 10.0; Win64; x64) AppleWebKit/537.36 (KHTML, like Gecko) Chrome/133.0.0.0 Safari/537.36" version="26.0.16">
  <diagram name="Page-1" id="6NRt2gG8v-onJTCGI4wg">
    <mxGraphModel dx="849" dy="1449" grid="1" gridSize="10" guides="1" tooltips="1" connect="1" arrows="1" fold="1" page="1" pageScale="1" pageWidth="850" pageHeight="1100" math="0" shadow="0">
      <root>
        <mxCell id="0" />
        <mxCell id="1" parent="0" />
        <mxCell id="mdFdaGQmdJYNopOe2X6e-3" value="" style="ellipse;whiteSpace=wrap;html=1;" vertex="1" parent="1">
          <mxGeometry x="310" y="-320" width="120" height="80" as="geometry" />
        </mxCell>
        <mxCell id="mdFdaGQmdJYNopOe2X6e-4" value="" style="shape=flexArrow;endArrow=classic;html=1;rounded=0;" edge="1" parent="1" target="mdFdaGQmdJYNopOe2X6e-5">
          <mxGeometry width="50" height="50" relative="1" as="geometry">
            <mxPoint x="370" y="-240" as="sourcePoint" />
            <mxPoint x="370" y="-140" as="targetPoint" />
          </mxGeometry>
        </mxCell>
        <mxCell id="mdFdaGQmdJYNopOe2X6e-5" value="" style="shape=parallelogram;perimeter=parallelogramPerimeter;whiteSpace=wrap;html=1;fixedSize=1;" vertex="1" parent="1">
          <mxGeometry x="310" y="-170" width="120" height="60" as="geometry" />
        </mxCell>
        <mxCell id="mdFdaGQmdJYNopOe2X6e-6" value="" style="shape=flexArrow;endArrow=classic;html=1;rounded=0;" edge="1" parent="1">
          <mxGeometry width="50" height="50" relative="1" as="geometry">
            <mxPoint x="425" y="-140.5" as="sourcePoint" />
            <mxPoint x="505" y="-140.5" as="targetPoint" />
          </mxGeometry>
        </mxCell>
        <mxCell id="mdFdaGQmdJYNopOe2X6e-8" value="" style="shape=flexArrow;endArrow=classic;html=1;rounded=0;" edge="1" parent="1">
          <mxGeometry width="50" height="50" relative="1" as="geometry">
            <mxPoint x="320" y="-145.5" as="sourcePoint" />
            <mxPoint x="230" y="-150" as="targetPoint" />
          </mxGeometry>
        </mxCell>
      </root>
    </mxGraphModel>
  </diagram>
</mxfile>
